<?xml version="1.0" encoding="UTF-8" standalone="no"?>
<!-- SVG image created by iKlem with GIMP -->
<!DOCTYPE svg PUBLIC "-//W3C//DTD SVG 20010904//EN"
              "http://www.w3.org/TR/2001/REC-SVG-20010904/DTD/svg10.dtd">

<svg xmlns="http://www.w3.org/2000/svg"
     width="1.24984in" height="1.24984in"
     viewBox="0 0 90 90">
  <path id="holes"
        fill="#3c3c3c" stroke="black" stroke-width="1"
        d="M 70.00,6.00
           C 70.00,6.00 70.00,42.00 70.00,42.00
             70.00,42.00 17.00,42.00 17.00,42.00
             17.00,42.00 17.00,6.00 17.00,6.00
             17.00,6.00 70.00,6.00 70.00,6.00 Z
           M 70.00,48.00
           C 70.00,48.00 70.00,84.00 70.00,84.00
             70.00,84.00 17.00,84.00 17.00,84.00
             17.00,84.00 17.00,48.00 17.00,48.00
             17.00,48.00 70.00,48.00 70.00,48.00 Z" />
  <path id="film"
       fill="#1c1c1c" stroke="black" stroke-width="1"
       d="M 90.00,0.00
          C 90.00,0.00 90.00,90.00 90.00,90.00
            90.00,90.00 0.00,90.00 0.00,90.00
            0.00,90.00 0.00,0.00 0.00,0.00
            0.00,0.00 90.00,0.00 90.00,0.00 Z
          M 6.00,6.00
          C 6.00,6.00 6.00,14.00 6.00,14.00
            6.00,14.00 14.00,14.00 14.00,14.00
            14.00,14.00 14.00,6.00 14.00,6.00
            14.00,6.00 6.00,6.00 6.00,6.00 Z
          M 20.00,6.00
          C 20.00,6.00 20.00,42.00 20.00,42.00
            20.00,42.00 70.00,42.00 70.00,42.00
            70.00,42.00 70.00,6.00 70.00,6.00
            70.00,6.00 20.00,6.00 20.00,6.00 Z
          M 76.00,6.00
          C 76.00,6.00 76.00,13.00 76.00,13.00
            76.00,13.00 84.00,13.00 84.00,13.00
            84.00,13.00 84.00,6.00 84.00,6.00
            84.00,6.00 76.00,6.00 76.00,6.00 Z
          M 6.00,17.00
          C 6.00,17.00 6.00,25.00 6.00,25.00
            6.00,25.00 14.00,25.00 14.00,25.00
            14.00,25.00 14.00,17.00 14.00,17.00
            14.00,17.00 6.00,17.00 6.00,17.00 Z
          M 76.00,18.00
          C 76.00,18.00 76.00,24.00 76.00,24.00
            76.00,24.00 84.00,24.00 84.00,24.00
            84.00,24.00 84.00,18.00 84.00,18.00
            84.00,18.00 76.00,18.00 76.00,18.00 Z
          M 6.00,28.00
          C 6.00,28.00 6.00,37.00 6.00,37.00
            6.00,37.00 14.00,37.00 14.00,37.00
            14.00,37.00 14.00,28.00 14.00,28.00
            14.00,28.00 6.00,28.00 6.00,28.00 Z
          M 76.00,29.00
          C 76.00,29.00 76.00,37.00 76.00,37.00
            76.00,37.00 84.00,37.00 84.00,37.00
            84.00,37.00 84.00,29.00 84.00,29.00
            84.00,29.00 76.00,29.00 76.00,29.00 Z
          M 6.00,42.00
          C 6.00,42.00 6.00,48.00 6.00,48.00
            6.00,48.00 14.00,48.00 14.00,48.00
            14.00,48.00 14.00,42.00 14.00,42.00
            14.00,42.00 6.00,42.00 6.00,42.00 Z
          M 76.00,42.00
          C 76.00,42.00 76.00,49.00 76.00,49.00
            76.00,49.00 84.00,49.00 84.00,49.00
            84.00,49.00 84.00,42.00 84.00,42.00
            84.00,42.00 76.00,42.00 76.00,42.00 Z
          M 20.00,48.00
          C 20.00,48.00 20.00,84.00 20.00,84.00
            20.00,84.00 70.00,84.00 70.00,84.00
            70.00,84.00 70.00,48.00 70.00,48.00
            70.00,48.00 20.00,48.00 20.00,48.00 Z
          M 6.00,53.00
          C 6.00,53.00 6.00,61.00 6.00,61.00
            6.00,61.00 14.00,61.00 14.00,61.00
            14.00,61.00 14.00,53.00 14.00,53.00
            14.00,53.00 6.00,53.00 6.00,53.00 Z
          M 76.00,53.00
          C 76.00,53.00 76.00,61.00 76.00,61.00
            76.00,61.00 84.00,61.00 84.00,61.00
            84.00,61.00 84.00,53.00 84.00,53.00
            84.00,53.00 76.00,53.00 76.00,53.00 Z
          M 76.00,65.00
          C 76.00,65.00 76.00,72.00 76.00,72.00
            76.00,72.00 84.00,72.00 84.00,72.00
            84.00,72.00 84.00,65.00 84.00,65.00
            84.00,65.00 76.00,65.00 76.00,65.00 Z
          M 6.00,66.00
          C 6.00,66.00 6.00,73.00 6.00,73.00
            6.00,73.00 14.00,73.00 14.00,73.00
            14.00,73.00 14.00,66.00 14.00,66.00
            14.00,66.00 6.00,66.00 6.00,66.00 Z
          M 76.00,77.00
          C 76.00,77.00 76.00,84.00 76.00,84.00
            76.00,84.00 84.00,84.00 84.00,84.00
            84.00,84.00 84.00,77.00 84.00,77.00
            84.00,77.00 76.00,77.00 76.00,77.00 Z
          M 6.00,78.00
          C 6.00,78.00 6.00,84.00 6.00,84.00
            6.00,84.00 14.00,84.00 14.00,84.00
            14.00,84.00 14.00,78.00 14.00,78.00
            14.00,78.00 6.00,78.00 6.00,78.00 Z" />
</svg>
