<?xml version="1.0" encoding="UTF-8" standalone="no"?>
<!DOCTYPE svg PUBLIC "-//W3C//DTD SVG 20010904//EN"
              "http://www.w3.org/TR/2001/REC-SVG-20010904/DTD/svg10.dtd">

<svg xmlns="http://www.w3.org/2000/svg"
     width="1.24984in" height="1.24984in"
     viewBox="0 0 90 90">
  <path id="square"
        fill="#58a6dc" stroke="black" stroke-width="1"
        d="M 90.00,0.00
           C 90.00,0.00 90.00,90.00 90.00,90.00
             90.00,90.00 0.00,90.00 0.00,90.00
             0.00,90.00 0.00,0.00 0.00,0.00
             0.00,0.00 90.00,0.00 90.00,0.00 Z" />
  <path id="M"
       fill="white" stroke="black" stroke-width="1"
       d="M 59.00,25.00
          C 59.00,25.00 62.00,28.00 62.00,28.00
            62.00,28.00 62.00,34.00 62.00,34.00
            62.00,34.00 65.00,34.00 65.00,34.00
            65.00,34.00 65.00,39.00 65.00,39.00
            65.00,39.00 70.00,39.00 70.00,39.00
            70.00,39.00 70.00,34.00 70.00,34.00
            70.00,34.00 73.00,34.00 73.00,34.00
            73.00,34.00 73.00,28.00 73.00,28.00
            73.00,28.00 76.00,25.00 76.00,25.00
            76.00,25.00 84.00,25.00 84.00,25.00
            84.00,25.00 84.00,65.00 84.00,65.00
            84.00,65.00 79.00,65.00 79.00,65.00
            79.00,65.00 79.00,34.00 79.00,34.00
            79.00,34.00 76.00,34.00 76.00,34.00
            76.00,34.00 76.00,42.00 76.00,42.00
            76.00,42.00 73.00,42.00 73.00,42.00
            73.00,42.00 73.00,48.00 73.00,48.00
            73.00,48.00 70.00,48.00 70.00,48.00
            70.00,48.00 70.00,53.00 70.00,53.00
            70.00,53.00 65.00,53.00 65.00,53.00
            65.00,53.00 65.00,48.00 65.00,48.00
            65.00,48.00 62.00,48.00 62.00,48.00
            62.00,48.00 62.00,42.00 62.00,42.00
            62.00,42.00 59.00,42.00 59.00,42.00
            59.00,42.00 59.00,34.00 59.00,34.00
            59.00,34.00 56.00,34.00 56.00,34.00
            56.00,34.00 56.00,65.00 56.00,65.00
            56.00,65.00 51.00,65.00 51.00,65.00
            51.00,65.00 51.00,25.00 51.00,25.00
            51.00,25.00 59.00,25.00 59.00,25.00 Z" />
  <path id="dude"
        fill="#323232" stroke="black" stroke-width="1"
        d="M 28.00,3.00
           C 28.00,3.00 28.00,8.00 28.00,8.00
             28.00,8.00 34.00,11.00 34.00,11.00
             34.00,11.00 34.00,20.00 34.00,20.00
             34.00,20.00 42.00,17.00 42.00,17.00
             42.00,17.00 45.00,20.00 45.00,20.00
             45.00,20.00 45.00,31.00 45.00,31.00
             45.00,31.00 39.00,31.00 39.00,31.00
             39.00,31.00 39.00,53.00 39.00,53.00
             39.00,53.00 42.00,53.00 42.00,53.00
             42.00,53.00 42.00,59.00 42.00,59.00
             42.00,59.00 45.00,59.00 45.00,59.00
             45.00,59.00 45.00,73.00 45.00,73.00
             45.00,73.00 42.00,73.00 42.00,73.00
             42.00,73.00 42.00,76.00 42.00,76.00
             42.00,76.00 45.00,79.00 45.00,79.00
             45.00,79.00 51.00,79.00 51.00,79.00
             51.00,79.00 51.00,84.00 51.00,84.00
             51.00,84.00 37.00,84.00 37.00,84.00
             37.00,84.00 37.00,76.00 37.00,76.00
             37.00,76.00 34.00,76.00 34.00,76.00
             34.00,76.00 34.00,62.00 34.00,62.00
             34.00,62.00 25.00,56.00 25.00,56.00
             25.00,61.35 25.94,65.92 20.00,68.00
             20.00,68.00 20.00,76.00 20.00,76.00
             20.00,76.00 14.00,79.00 14.00,79.00
             14.00,79.00 14.00,82.00 14.00,82.00
             17.88,83.61 16.99,86.15 17.00,90.00
             17.00,90.00 11.00,90.00 11.00,90.00
             11.00,90.00 11.00,87.00 11.00,87.00
             11.00,87.00 6.00,87.00 6.00,87.00
             6.00,87.00 6.81,80.88 6.81,80.88
             6.81,80.88 6.28,75.13 6.28,75.13
             6.28,75.13 7.87,69.91 7.87,69.91
             7.87,69.91 7.87,59.00 7.87,59.00
             7.87,59.00 11.00,59.00 11.00,59.00
             11.00,59.00 11.00,51.00 11.00,51.00
             11.00,51.00 14.00,51.00 14.00,51.00
             14.00,51.00 14.00,34.00 14.00,34.00
             14.00,34.00 17.00,34.00 17.00,34.00
             17.00,34.00 17.00,28.00 17.00,28.00
             17.00,28.00 28.00,20.00 28.00,20.00
             28.00,20.00 28.00,11.00 28.00,11.00
             28.00,11.00 25.00,11.00 25.00,11.00
             25.00,11.00 23.00,3.00 23.00,3.00
             23.00,3.00 28.00,3.00 28.00,3.00 Z" />
  <path id="knife"
       fill="red" stroke="black" stroke-width="1"
       d="M 25.00,6.00
          C 25.00,6.00 25.00,8.00 25.00,8.00
            25.00,8.00 20.00,8.00 20.00,8.00
            20.00,8.00 20.00,6.00 20.00,6.00
            20.00,6.00 25.00,6.00 25.00,6.00 Z
          M 48.00,11.00
          C 48.00,11.00 34.00,11.00 34.00,11.00
            34.00,11.00 34.00,8.00 34.00,8.00
            34.00,8.00 28.00,8.00 28.00,8.00
            28.00,8.00 28.00,6.00 28.00,6.00
            34.31,6.00 45.46,3.73 48.00,11.00 Z" />
</svg>
