<?xml version="1.0" encoding="UTF-8" standalone="no"?>
<!-- SVG image created by iKlem with GIMP -->
<!DOCTYPE svg PUBLIC "-//W3C//DTD SVG 20010904//EN"
              "http://www.w3.org/TR/2001/REC-SVG-20010904/DTD/svg10.dtd">

<svg xmlns="http://www.w3.org/2000/svg"
     width="1.24984in" height="1.24984in"
     viewBox="0 0 90 90">
  <path id="floor"
        fill="#322b27" stroke="black" stroke-width="1"
        d="M 90.00,64.00
           C 90.00,64.00 90.00,90.00 90.00,90.00
             90.00,90.00 0.00,90.00 0.00,90.00
             0.00,90.00 0.00,64.00 0.00,64.00
             0.00,64.00 90.00,64.00 90.00,64.00 Z" />
  <path id="buddy"
       fill="black" stroke="black" stroke-width="1"
       d="M 41.00,8.00
          C 41.00,8.00 41.00,11.00 41.00,11.00
            41.00,11.00 53.00,11.00 53.00,11.00
            53.00,11.00 53.00,15.00 53.00,15.00
            53.00,15.00 64.00,15.00 64.00,15.00
            64.00,15.00 64.00,30.00 64.00,30.00
            64.00,30.00 60.00,30.00 60.00,30.00
            60.00,30.00 60.00,41.00 60.00,41.00
            60.00,41.00 75.00,41.00 75.00,41.00
            75.00,41.00 75.00,34.00 75.00,34.00
            75.00,34.00 71.00,34.00 71.00,34.00
            71.00,34.00 71.00,26.00 71.00,26.00
            71.00,26.00 75.00,26.00 75.00,26.00
            75.00,26.00 75.00,23.00 75.00,23.00
            75.00,23.00 83.00,23.00 83.00,23.00
            83.00,23.00 83.00,34.00 83.00,34.00
            83.00,34.00 79.00,34.00 79.00,34.00
            79.00,34.00 79.00,45.00 79.00,45.00
            79.00,45.00 60.00,45.00 60.00,45.00
            60.00,45.00 60.00,53.00 60.00,53.00
            60.00,53.00 68.00,53.00 68.00,53.00
            68.00,53.00 68.00,56.00 68.00,56.00
            68.00,56.00 75.00,56.00 75.00,56.00
            75.00,56.00 75.00,53.00 75.00,53.00
            75.00,53.00 79.00,53.00 79.00,53.00
            79.00,53.00 79.00,60.00 79.00,60.00
            79.00,60.00 75.00,60.00 75.00,60.00
            75.00,60.00 75.00,64.00 75.00,64.00
            75.00,64.00 71.00,64.00 71.00,64.00
            71.00,64.00 71.00,68.00 71.00,68.00
            71.00,68.00 64.00,68.00 64.00,68.00
            64.00,68.00 64.00,56.00 64.00,56.00
            64.00,56.00 60.00,56.00 60.00,56.00
            60.00,56.00 60.00,64.00 60.00,64.00
            60.00,64.00 30.00,64.00 30.00,64.00
            30.00,64.00 30.00,68.00 30.00,68.00
            30.00,68.00 26.00,68.00 26.00,68.00
            26.00,68.00 26.00,75.00 26.00,75.00
            26.00,75.00 23.00,75.00 23.00,75.00
            23.00,75.00 23.00,71.00 23.00,71.00
            23.00,71.00 19.00,71.00 19.00,71.00
            19.00,71.00 19.00,79.00 19.00,79.00
            19.00,79.00 8.00,79.00 8.00,79.00
            8.00,79.00 8.00,71.00 8.00,71.00
            8.00,71.00 11.00,71.00 11.00,71.00
            11.00,71.00 11.00,64.00 11.00,64.00
            11.00,64.00 15.00,64.00 15.00,64.00
            15.00,64.00 15.00,60.00 15.00,60.00
            15.00,60.00 19.00,60.00 19.00,60.00
            19.00,60.00 19.00,68.00 19.00,68.00
            19.00,68.00 26.00,66.00 26.00,66.00
            26.00,66.00 26.00,60.00 26.00,60.00
            26.00,60.00 23.00,60.00 23.00,60.00
            23.00,60.00 23.00,34.00 23.00,34.00
            23.00,34.00 11.00,34.00 11.00,34.00
            11.00,34.00 11.00,38.00 11.00,38.00
            11.00,38.00 19.00,38.00 19.00,38.00
            19.00,38.00 19.00,45.00 19.00,45.00
            19.00,45.00 4.00,45.00 4.00,45.00
            4.00,45.00 4.00,41.00 4.00,41.00
            4.00,41.00 8.00,41.00 8.00,41.00
            8.00,41.00 8.00,34.00 8.00,34.00
            8.00,34.00 11.00,34.00 11.00,34.00
            11.00,34.00 11.00,30.00 11.00,30.00
            11.00,30.00 19.00,30.00 19.00,30.00
            19.00,30.00 19.00,23.00 19.00,23.00
            19.00,23.00 23.00,23.00 23.00,23.00
            23.00,23.00 23.00,15.00 23.00,15.00
            23.00,15.00 26.00,15.00 26.00,15.00
            26.00,15.00 26.00,8.00 26.00,8.00
            26.00,8.00 41.00,8.00 41.00,8.00 Z" />
</svg>
