<?xml version="1.0" encoding="UTF-8" standalone="no"?>
<!-- SVG image created by iKlem with GIMP -->
<!DOCTYPE svg PUBLIC "-//W3C//DTD SVG 20010904//EN"
              "http://www.w3.org/TR/2001/REC-SVG-20010904/DTD/svg10.dtd">

<svg xmlns="http://www.w3.org/2000/svg"
     width="1.25in" height="1.25in"
     viewBox="0 0 90 90">
  <path id="square"
        fill="red" stroke="black" stroke-width="1"
        d="M 87.00,3.00
           C 87.00,3.00 87.00,87.00 87.00,87.00
             87.00,87.00 3.00,87.00 3.00,87.00
             3.00,87.00 3.00,3.00 3.00,3.00
             3.00,3.00 87.00,3.00 87.00,3.00 Z" />
  <path id="T"
        fill="white" stroke="black" stroke-width="1"
        d="M 70.00,14.00
            C 70.00,14.00 70.00,25.00 70.00,25.00
              70.00,25.00 51.00,25.00 51.00,25.00
              51.00,25.00 51.00,76.00 51.00,76.00
              51.00,76.00 39.00,76.00 39.00,76.00
              39.00,76.00 39.00,25.00 39.00,25.00
              39.00,25.00 20.00,25.00 20.00,25.00
              20.00,25.00 20.00,14.00 20.00,14.00
              20.00,14.00 70.00,14.00 70.00,14.00 Z" />
</svg>
