<!-- GMod SVG - Created, modified, and cleaned up by iKlem -->
<svg width="90px" height="90px" viewBox="0 0 90 90" xmlns="http://www.w3.org/2000/svg" style="pointer-events: none; display: block;">
  <!-- Change the "fill" color here -->
  <path
     id="square"
     fill="#045FB4"
     stroke="none"
     stroke-width="1"
     d="M 4.50,4.53 C 4.50,4.53 85.47,4.56 85.47,4.56 85.47,4.56 85.47,86.50 85.47,86.50 85.47,86.50 4.47,86.34 4.47,86.34 4.47,86.34 4.50,4.53 4.50,4.53 Z" />
  <!-- Change the stroke/stroke-width here -->
  <path
    id="g"
    fill="white"
    stroke="black"
    stroke-width="1"
    d="M 44.00,58.98 C 27.29,59.40 21.67,48.03 22.01,33.00 22.11,29.03 22.69,25.65 24.35,22.00 28.42,13.08 39.40,7.12 49.00,11.01 51.84,12.16 53.76,14.00 56.00,16.00 56.00,16.00 56.00,11.00 56.00,11.00 56.00,11.00 68.00,11.00 68.00,11.00 68.00,11.00 68.00,61.00 68.00,61.00 67.96,64.23 67.86,67.01 66.43,70.00 58.74,86.11 24.32,87.50 22.00,62.00 22.00,62.00 32.91,62.13 32.91,62.13 33.87,72.48 48.02,74.39 53.65,67.74 56.80,64.03 56.00,58.52 56.00,54.00 51.57,57.58 49.81,58.84 44.00,58.98 Z M 37.51,24.13 C 32.94,29.80 32.99,51.87 47.00,49.76 60.27,47.76 61.25,19.80 44.00,20.38 41.12,21.17 39.49,21.67 37.51,24.13 Z" />
</svg>
